<?xml version="1.0" encoding="utf-8"?>
<svg viewBox="0 0 4200 1494" width="4200px" height="1494px" style="shape-rendering:geometricPrecision; text-rendering:geometricPrecision; image-rendering:optimizeQuality; fill-rule:evenodd; clip-rule:evenodd" xmlns="http://www.w3.org/2000/svg">
  <g transform="matrix(1.0000000000000002, 0, 0, 1.0000000000000002, 0, 1.4210854715202004e-14)">
    <path style="opacity:0.986" fill="#a13b1a" d="M 521.5,58.5 C 657.72,53.7781 775.72,96.2781 875.5,186C 999.306,307.681 1047.14,455.514 1019,629.5C 1000.12,722.041 958.449,801.707 894,868.5C 821.642,953.942 758.476,1046.11 704.5,1145C 689.462,1174.91 674.296,1204.74 659,1234.5C 630.895,1294.97 605.562,1356.63 583,1419.5C 567.863,1438.67 549.03,1442.83 526.5,1432C 525.527,1429.45 523.693,1427.95 521,1427.5C 519.04,1424.86 517.04,1422.2 515,1419.5C 502.179,1384.94 488.845,1350.61 475,1316.5C 421.643,1189.34 355.143,1070.01 275.5,958.5C 262.245,941.227 248.911,923.894 235.5,906.5C 215.888,882.961 195.721,859.961 175,837.5C 117.442,764.616 83.2756,681.45 72.5,588C 59.5087,419.393 115.509,280.06 240.5,170C 321.698,103.35 415.365,66.1829 521.5,58.5 Z M 526.5,248.5 C 637.332,245.156 724.832,287.823 789,376.5C 837.4,452.206 849.567,533.539 825.5,620.5C 798.014,702.46 745.681,762.294 668.5,800C 563.443,843.564 465.11,832.398 373.5,766.5C 290.334,699.384 253.167,611.717 262,503.5C 276.107,407.838 324.273,335.338 406.5,286C 424.564,276.468 443.231,268.301 462.5,261.5C 472.599,258.567 482.765,255.9 493,253.5C 503.467,252.041 513.967,250.874 524.5,250C 525.416,249.722 526.082,249.222 526.5,248.5 Z"/>
  </g>
  <g transform="matrix(1.0000000000000002, 0, 0, 1.0000000000000002, 0, 1.4210854715202004e-14)">
    <path style="opacity:0.994" fill="#a13b1a" d="M 1595.5,244.5 C 1646.62,239.865 1693.62,251.365 1736.5,279C 1799.11,327.115 1822.94,390.282 1808,468.5C 1786.13,545.701 1735.63,591.535 1656.5,606C 1602.91,615.012 1552.58,606.012 1505.5,579C 1442.93,536.058 1415.76,476.558 1424,400.5C 1437.23,327.219 1479.07,278.386 1549.5,254C 1564.69,249.462 1580.03,246.296 1595.5,244.5 Z M 1603.5,327.5 C 1653.43,323.327 1687.6,344.327 1706,390.5C 1715.88,423.787 1712.21,455.454 1695,485.5C 1670.3,518.521 1637.47,531.354 1596.5,524C 1556.1,513.593 1532.26,487.759 1525,446.5C 1519.01,411.79 1527.34,381.123 1550,354.5C 1565.11,340.027 1582.95,331.027 1603.5,327.5 Z"/>
  </g>
  <g transform="matrix(1.0000000000000002, 0, 0, 1.0000000000000002, 0, 1.4210854715202004e-14)">
    <path style="opacity:0.994" fill="#a13b1a" d="M 2017.5,244.5 C 2062.08,240.649 2104.08,249.149 2143.5,270C 2161.43,280.423 2176.76,293.923 2189.5,310.5C 2168.51,329.989 2147.34,349.323 2126,368.5C 2093.38,329.856 2052.88,318.356 2004.5,334C 1979.36,344.09 1962.19,361.923 1953,387.5C 1940.8,424.542 1945.46,459.209 1967,491.5C 1986.81,514.734 2012.15,526.4 2043,526.5C 2070.17,525.785 2093.67,516.285 2113.5,498C 2117.73,493.767 2121.9,489.6 2126,485.5C 2147.29,503.782 2168.29,522.449 2189,541.5C 2188.6,543.631 2187.6,545.631 2186,547.5C 2158.38,578.066 2124.22,597.233 2083.5,605C 2030.94,615.012 1980.94,607.679 1933.5,583C 1875.94,547.248 1846.61,495.248 1845.5,427C 1846.31,357.349 1876.31,304.682 1935.5,269C 1961.34,255.437 1988.68,247.27 2017.5,244.5 Z"/>
  </g>
  <g transform="matrix(1.0000000000000002, 0, 0, 1.0000000000000002, 0, 1.4210854715202004e-14)">
    <path style="opacity:0.997" fill="#a13b1a" d="M 1140.5,251.5 C 1173.83,251.5 1207.17,251.5 1240.5,251.5C 1240.5,341.833 1240.5,432.167 1240.5,522.5C 1296.17,522.5 1351.83,522.5 1407.5,522.5C 1407.5,549.167 1407.5,575.833 1407.5,602.5C 1318.5,602.5 1229.5,602.5 1140.5,602.5C 1140.5,485.5 1140.5,368.5 1140.5,251.5 Z"/>
  </g>
  <g transform="matrix(1.0000000000000002, 0, 0, 1.0000000000000002, 0, 1.4210854715202004e-14)">
    <path style="opacity:0.996" fill="#a13b1a" d="M 2338.5,251.5 C 2371.74,251.171 2404.91,251.504 2438,252.5C 2489.5,368.833 2541,485.167 2592.5,601.5C 2557.83,602.833 2523.17,602.833 2488.5,601.5C 2479.4,579.357 2470.4,557.19 2461.5,535C 2412.17,534.333 2362.83,534.333 2313.5,535C 2304.6,557.19 2295.6,579.357 2286.5,601.5C 2252.51,602.5 2218.51,602.833 2184.5,602.5C 2235.55,485.394 2286.89,368.394 2338.5,251.5 Z M 2386.5,351.5 C 2388.28,352.574 2389.45,354.24 2390,356.5C 2403.83,390.833 2417.67,425.167 2431.5,459.5C 2402.17,460.833 2372.83,460.833 2343.5,459.5C 2358.23,423.635 2372.56,387.635 2386.5,351.5 Z"/>
  </g>
  <g transform="matrix(1.0000000000000002, 0, 0, 1.0000000000000002, 0, 1.4210854715202004e-14)">
    <path style="opacity:0.994" fill="#a13b1a" d="M 2619.5,251.5 C 2652.83,251.5 2686.17,251.5 2719.5,251.5C 2719.5,341.833 2719.5,432.167 2719.5,522.5C 2775.17,522.5 2830.83,522.5 2886.5,522.5C 2886.5,549.167 2886.5,575.833 2886.5,602.5C 2797.5,602.5 2708.5,602.5 2619.5,602.5C 2619.5,485.5 2619.5,368.5 2619.5,251.5 Z"/>
  </g>
  <g transform="matrix(1.0000000000000002, 0, 0, 1.0000000000000002, 0, 1.4210854715202004e-14)">
    <path style="opacity:0.994" fill="#a13b1a" d="M 1296.5,844.5 C 1348.13,839.786 1395.47,851.619 1438.5,880C 1500.41,929.036 1523.58,992.536 1508,1070.5C 1490.78,1132.05 1452.28,1174.22 1392.5,1197C 1337.11,1214.65 1282.45,1212.65 1228.5,1191C 1160.76,1157.57 1125.43,1102.9 1122.5,1027C 1124.62,953.381 1157.95,899.381 1222.5,865C 1246.13,853.952 1270.79,847.118 1296.5,844.5 Z M 1304.5,927.5 C 1345.84,923.302 1377.34,938.635 1399,973.5C 1411.7,998.597 1415.03,1024.93 1409,1052.5C 1396.48,1098.94 1366.15,1123.61 1318,1126.5C 1265.64,1122.8 1234.64,1095.14 1225,1043.5C 1219.51,1005.96 1230.34,974.131 1257.5,948C 1271.41,936.981 1287.07,930.148 1304.5,927.5 Z"/>
  </g>
  <g transform="matrix(1.0000000000000002, 0, 0, 1.0000000000000002, 0, 1.4210854715202004e-14)">
    <path style="opacity:0.994" fill="#a13b1a" d="M 3516.5,844.5 C 3559.8,840.715 3600.8,848.549 3639.5,868C 3658.92,879.083 3675.59,893.417 3689.5,911C 3668.33,930.167 3647.17,949.333 3626,968.5C 3592.19,929.004 3550.69,917.837 3501.5,935C 3469.5,950.46 3451.33,975.96 3447,1011.5C 3442.35,1048.23 3453.19,1079.4 3479.5,1105C 3508.79,1125.88 3540.79,1131.21 3575.5,1121C 3587.58,1116.46 3598.58,1110.13 3608.5,1102C 3614.04,1096.12 3619.88,1090.62 3626,1085.5C 3647.24,1104.55 3668.41,1123.71 3689.5,1143C 3659.92,1177.46 3622.59,1198.46 3577.5,1206C 3523.85,1215 3473.52,1206 3426.5,1179C 3366.74,1137.29 3339.91,1079.79 3346,1006.5C 3354.43,938.418 3389.6,889.918 3451.5,861C 3472.53,852.492 3494.2,846.992 3516.5,844.5 Z"/>
  </g>
  <g transform="matrix(1.0000000000000002, 0, 0, 1.0000000000000002, 0, 1.4210854715202004e-14)">
    <path style="opacity:0.996" fill="#a13b1a" d="M 1560.5,851.5 C 1593.83,851.5 1627.17,851.5 1660.5,851.5C 1660.33,916.501 1660.5,981.501 1661,1046.5C 1660.54,1065.21 1664.54,1082.88 1673,1099.5C 1686.03,1117.6 1703.86,1126.6 1726.5,1126.5C 1760.33,1125.86 1781.16,1109.19 1789,1076.5C 1790.65,1069.26 1791.65,1061.92 1792,1054.5C 1792.5,986.834 1792.67,919.167 1792.5,851.5C 1825.17,851.5 1857.83,851.5 1890.5,851.5C 1890.67,923.501 1890.5,995.501 1890,1067.5C 1887.23,1118.58 1864.73,1158.08 1822.5,1186C 1792.38,1202.07 1760.21,1209.9 1726,1209.5C 1691.74,1209.92 1659.58,1202.09 1629.5,1186C 1595.94,1164.77 1574.77,1134.6 1566,1095.5C 1563.09,1081.65 1561.42,1067.65 1561,1053.5C 1560.5,986.167 1560.33,918.834 1560.5,851.5 Z"/>
  </g>
  <g transform="matrix(1.0000000000000002, 0, 0, 1.0000000000000002, 0, 1.4210854715202004e-14)">
    <path style="opacity:0.998" fill="#a13b1a" d="M 1918.5,851.5 C 2023.17,851.5 2127.83,851.5 2232.5,851.5C 2232.5,877.833 2232.5,904.167 2232.5,930.5C 2196.83,930.5 2161.17,930.5 2125.5,930.5C 2125.5,1021.17 2125.5,1111.83 2125.5,1202.5C 2092.17,1202.5 2058.83,1202.5 2025.5,1202.5C 2025.5,1111.83 2025.5,1021.17 2025.5,930.5C 1989.83,930.5 1954.17,930.5 1918.5,930.5C 1918.5,904.167 1918.5,877.833 1918.5,851.5 Z"/>
  </g>
  <g transform="matrix(1.0000000000000002, 0, 0, 1.0000000000000002, 0, 1.4210854715202004e-14)">
    <path style="opacity:0.997" fill="#a13b1a" d="M 2268.5,851.5 C 2329.5,851.333 2390.5,851.5 2451.5,852C 2486.04,854.064 2517.04,865.397 2544.5,886C 2572.35,911.384 2586.02,943.051 2585.5,981C 2585.21,1031.95 2562.54,1068.95 2517.5,1092C 2542.7,1128.36 2567.7,1164.86 2592.5,1201.5C 2556.84,1202.67 2521.17,1202.83 2485.5,1202C 2464.75,1171.16 2443.75,1140.49 2422.5,1110C 2404.5,1109.5 2386.5,1109.33 2368.5,1109.5C 2368.5,1140.5 2368.5,1171.5 2368.5,1202.5C 2335.17,1202.5 2301.83,1202.5 2268.5,1202.5C 2268.5,1085.5 2268.5,968.5 2268.5,851.5 Z M 2368.5,930.5 C 2391.84,930.333 2415.17,930.5 2438.5,931C 2473.98,937.506 2488.81,958.672 2483,994.5C 2479.6,1009.57 2470.77,1020.07 2456.5,1026C 2449.74,1028.68 2442.74,1030.35 2435.5,1031C 2413.17,1031.5 2390.84,1031.67 2368.5,1031.5C 2368.5,997.833 2368.5,964.167 2368.5,930.5 Z"/>
  </g>
  <g transform="matrix(1.0000000000000002, 0, 0, 1.0000000000000002, 0, 1.4210854715202004e-14)">
    <path style="opacity:0.996" fill="#a13b1a" d="M 3087.5,851.5 C 3120.51,851.167 3153.51,851.5 3186.5,852.5C 3238.07,969.059 3289.74,1085.56 3341.5,1202C 3306.83,1202.67 3272.17,1202.67 3237.5,1202C 3228.01,1179.68 3219.01,1157.18 3210.5,1134.5C 3160.83,1134.5 3111.17,1134.5 3061.5,1134.5C 3052.83,1157.17 3044.17,1179.83 3035.5,1202.5C 3001.5,1202.5 2967.5,1202.5 2933.5,1202.5C 2984.05,1085.18 3035.39,968.176 3087.5,851.5 Z M 3135.5,950.5 C 3150.38,986.957 3165.38,1023.46 3180.5,1060C 3151.17,1060.5 3121.84,1060.67 3092.5,1060.5C 3106.83,1023.84 3121.16,987.177 3135.5,950.5 Z"/>
  </g>
  <g transform="matrix(1.0000000000000002, 0, 0, 1.0000000000000002, 0, 1.4210854715202004e-14)">
    <path style="opacity:0.995" fill="#a13b1a" d="M 3732.5,851.5 C 3765.83,851.5 3799.17,851.5 3832.5,851.5C 3832.5,895.167 3832.5,938.833 3832.5,982.5C 3877.17,982.5 3921.83,982.5 3966.5,982.5C 3966.5,938.833 3966.5,895.167 3966.5,851.5C 3999.83,851.5 4033.17,851.5 4066.5,851.5C 4066.5,968.5 4066.5,1085.5 4066.5,1202.5C 4033.17,1202.5 3999.83,1202.5 3966.5,1202.5C 3966.5,1156.83 3966.5,1111.17 3966.5,1065.5C 3921.83,1065.5 3877.17,1065.5 3832.5,1065.5C 3832.5,1111.17 3832.5,1156.83 3832.5,1202.5C 3799.17,1202.5 3765.83,1202.5 3732.5,1202.5C 3732.5,1085.5 3732.5,968.5 3732.5,851.5 Z"/>
  </g>
  <g transform="matrix(1.0000000000000002, 0, 0, 1.0000000000000002, 0, 1.4210854715202004e-14)">
    <path style="opacity:0.998" fill="#a13b1a" d="M 2921.5,1125.5 C 2920.5,1150.66 2920.17,1175.99 2920.5,1201.5C 2826.83,1201.5 2733.17,1201.5 2639.5,1201.5C 2638.5,1085 2638.17,968.335 2638.5,851.5C 2730.5,851.5 2822.5,851.5 2914.5,851.5C 2914.5,877.167 2914.5,902.833 2914.5,928.5C 2855.83,928.5 2797.17,928.5 2738.5,928.5C 2738.5,947.833 2738.5,967.167 2738.5,986.5C 2790.17,986.5 2841.83,986.5 2893.5,986.5C 2893.5,1011.5 2893.5,1036.5 2893.5,1061.5C 2841.83,1061.5 2790.17,1061.5 2738.5,1061.5C 2738.5,1082.5 2738.5,1103.5 2738.5,1124.5C 2799.67,1124.17 2860.67,1124.5 2921.5,1125.5 Z"/>
  </g>
  <g transform="matrix(1.0000000000000002, 0, 0, 1.0000000000000002, 0, 1.4210854715202004e-14)">
    <path style="opacity:0.067" fill="#a13b1a" d="M 2921.5,1125.5 C 2921.5,1151.17 2921.5,1176.83 2921.5,1202.5C 2827.33,1202.83 2733.33,1202.5 2639.5,1201.5C 2733.17,1201.5 2826.83,1201.5 2920.5,1201.5C 2920.17,1175.99 2920.5,1150.66 2921.5,1125.5 Z"/>
  </g>
  <ellipse style="fill: rgb(72, 72, 72);" cx="545.663" cy="538.209" rx="291.528" ry="297.155" transform="matrix(1.0000000000000002, 0, 0, 1.0000000000000002, 0, 1.4210854715202004e-14)"/>
</svg>