<?xml version="1.0" encoding="utf-8"?>
<svg viewBox="208.76 17.28 723.69 1044.19" width="723.69" height="1044.19" style="shape-rendering:geometricPrecision; text-rendering:geometricPrecision; image-rendering:optimizeQuality; fill-rule:evenodd; clip-rule:evenodd" xmlns="http://www.w3.org/2000/svg">
  <g transform="matrix(0.9999999999999999, 0, 0, 0.9999999999999999, 0, 0)">
    <path style="opacity:0.994" fill="#39393b" d="M 550.5,17.5 C 668.325,13.8536 766.492,55.5202 845,142.5C 923.447,238.308 949.114,346.974 922,468.5C 905.627,532.61 874.293,587.943 828,634.5C 742.197,737.67 673.863,852.004 623,977.5C 613.804,1000.75 604.804,1024.09 596,1047.5C 584.853,1062.08 571.02,1065.24 554.5,1057C 551.114,1054.74 548.281,1051.9 546,1048.5C 504.247,931.321 448.58,821.655 379,719.5C 369.244,705.656 359.244,691.989 349,678.5C 326.086,649.582 302.42,621.249 278,593.5C 216.909,506.442 196.243,410.442 216,305.5C 236.825,211.943 285.992,137.443 363.5,82C 419.933,43.4666 482.266,21.9666 550.5,17.5 Z M 553.5,160.5 C 644.03,157.673 713.196,194.339 761,270.5C 799.331,342.392 799.664,414.392 762,486.5C 714.003,564.757 643.836,601.924 551.5,598C 468.321,587.785 408.154,545.285 371,470.5C 342.399,402.728 345.399,336.395 380,271.5C 419.479,206.157 477.313,169.157 553.5,160.5 Z"/>
  </g>
  <ellipse style="fill: rgb(72,72,72);" cx="568.985" cy="380.519" rx="221.576" ry="223.594" transform="matrix(0.9999999999999999, 0, 0, 0.9999999999999999, 0, 0)"/>

</svg>